<svg width="28" height="28" viewBox="0 0 28 28" fill="none" xmlns="http://www.w3.org/2000/svg">
<g filter="url(#filter0_d_96_252)">
<mask id="path-1-inside-1_96_252" fill="white">
<path d="M2 13C2 6.37258 7.37258 1 14 1C20.6274 1 26 6.37258 26 13C26 19.6274 20.6274 25 14 25C7.37258 25 2 19.6274 2 13Z"/>
</mask>
<path d="M2 13C2 6.37258 7.37258 1 14 1C20.6274 1 26 6.37258 26 13C26 19.6274 20.6274 25 14 25C7.37258 25 2 19.6274 2 13Z" fill="white"/>
<path d="M2 13M26 13M26 13M2 13M14 1M26 13M14 25M2 13M14 25V24C7.92487 24 3 19.0751 3 13H2H1C1 20.1797 6.8203 26 14 26V25ZM26 13H25C25 19.0751 20.0751 24 14 24V25V26C21.1797 26 27 20.1797 27 13H26ZM14 1V2C20.0751 2 25 6.92487 25 13H26H27C27 5.8203 21.1797 0 14 0V1ZM14 1V0C6.8203 0 1 5.8203 1 13H2H3C3 6.92487 7.92487 2 14 2V1Z" fill="#D0D5DD" mask="url(#path-1-inside-1_96_252)"/>
<path d="M18.6667 19V17.6667C18.6667 16.9594 18.3857 16.2811 17.8856 15.781C17.3855 15.281 16.7072 15 16 15H12C11.2928 15 10.6145 15.281 10.1144 15.781C9.61429 16.2811 9.33333 16.9594 9.33333 17.6667V19M16.6667 9.66667C16.6667 11.1394 15.4728 12.3333 14 12.3333C12.5272 12.3333 11.3333 11.1394 11.3333 9.66667C11.3333 8.19391 12.5272 7 14 7C15.4728 7 16.6667 8.19391 16.6667 9.66667Z" stroke="#182230" stroke-width="1.33" stroke-linecap="round" stroke-linejoin="round"/>
</g>
<defs>
<filter id="filter0_d_96_252" x="0" y="0" width="28" height="28" filterUnits="userSpaceOnUse" color-interpolation-filters="sRGB">
<feFlood flood-opacity="0" result="BackgroundImageFix"/>
<feColorMatrix in="SourceAlpha" type="matrix" values="0 0 0 0 0 0 0 0 0 0 0 0 0 0 0 0 0 0 127 0" result="hardAlpha"/>
<feOffset dy="1"/>
<feGaussianBlur stdDeviation="1"/>
<feColorMatrix type="matrix" values="0 0 0 0 0 0 0 0 0 0 0 0 0 0 0 0 0 0 0.05 0"/>
<feBlend mode="normal" in2="BackgroundImageFix" result="effect1_dropShadow_96_252"/>
<feBlend mode="normal" in="SourceGraphic" in2="effect1_dropShadow_96_252" result="shape"/>
</filter>
</defs>
</svg>
