<svg width="15" height="15" viewBox="0 0 15 15" fill="none" xmlns="http://www.w3.org/2000/svg">
<path d="M11.1667 12.5C11.1667 11.4391 10.7452 10.4217 9.99509 9.67157C9.24495 8.92143 8.22753 8.5 7.16667 8.5M7.16667 8.5C6.1058 8.5 5.08838 8.92143 4.33824 9.67157C3.58809 10.4217 3.16667 11.4391 3.16667 12.5M7.16667 8.5C8.63943 8.5 9.83333 7.30609 9.83333 5.83333C9.83333 4.36057 8.63943 3.16667 7.16667 3.16667C5.69391 3.16667 4.5 4.36057 4.5 5.83333C4.5 7.30609 5.69391 8.5 7.16667 8.5ZM13.8333 7.16667C13.8333 10.8486 10.8486 13.8333 7.16667 13.8333C3.48477 13.8333 0.5 10.8486 0.5 7.16667C0.5 3.48477 3.48477 0.5 7.16667 0.5C10.8486 0.5 13.8333 3.48477 13.8333 7.16667Z" stroke="#667085" stroke-linecap="round" stroke-linejoin="round"/>
</svg>
